<svg xmlns="http://www.w3.org/2000/svg" xmlns:xlink="http://www.w3.org/1999/xlink" id="Layer_1" data-name="Layer 1" viewBox="0 0 128 128" width="79" height="79">
    <defs>
        <style>
        .cls-1{fill:none;}
        .cls-2{clip-path:url(#clip-path);}
        .cls-3{fill:#fcb30b;}
        .cls-4{fill:#ffdea4;}
        .cls-5{fill:#fff2b4;}
        .cls-6{fill:#ffdf8e;}
        .cls-7{fill:#fc5426;}
        .cls-8{fill:#fc6930;}
        .cls-9{fill:#d63d24;}
        .cls-10{fill:#fd3980;}
        .cls-11{fill:#fc5e93;}
        </style>
        <clipPath id="clip-path">
            <rect class="cls-1" y="2.75" width="128" height="125.25"/>
        </clipPath>
    </defs>
    <title>web-danh-muc-voucher</title>
    <g class="cls-2">
    <path class="cls-3" d="M117.07,96.11a4.62,4.62,0,0,1-.24,4.92,62.59,62.59,0,1,1,0-71.32,4.59,4.59,0,0,1,.21,4.88,62.65,62.65,0,0,0,0,61.52Zm0,0"/>
    </g>
    <path class="cls-4" d="M33.21,101.11V29.58h83.56a62.6,62.6,0,0,1,0,71.54Zm0,0"/>
    <path class="cls-5" d="M33.21,92.43V29.58h83.56a62.66,62.66,0,0,1,5.08,62.85Zm0,0"/>
    <path class="cls-6" d="M87.85,43.63A21.72,21.72,0,1,1,66.14,65.34,21.72,21.72,0,0,1,87.85,43.63Zm0,0"/>
    <path class="cls-7" d="M5.11,29.58h46v71.54h-46A5.11,5.11,0,0,1,0,96V78.12a2.68,2.68,0,0,1,2.68-2.68,10.09,10.09,0,1,0,0-20.18A2.68,2.68,0,0,1,0,52.57V34.69a5.11,5.11,0,0,1,5.11-5.11Zm0,0"/>
    <path class="cls-8" d="M5.11,29.58h46V92.43h-46A5.11,5.11,0,0,1,0,87.32v-9.2a2.68,2.68,0,0,1,2.68-2.68,10.09,10.09,0,1,0,0-20.18A2.68,2.68,0,0,1,0,52.57V34.69a5.11,5.11,0,0,1,5.11-5.11Zm0,0"/>
    <path class="cls-9" d="M43.43,89.62v2.55a1.28,1.28,0,0,1-1.28,1.28h-23a1.28,1.28,0,0,1-1.28-1.28V89.62a1.28,1.28,0,0,1,1.28-1.28h23a1.28,1.28,0,0,1,1.28,1.28Zm-1.28-11.5H26.83a1.28,1.28,0,0,0-1.28,1.28V82a1.28,1.28,0,0,0,1.28,1.28H42.16A1.28,1.28,0,0,0,43.43,82V79.4a1.28,1.28,0,0,0-1.28-1.28Zm-23,5.11h2.55A1.28,1.28,0,0,0,23,82V79.4a1.28,1.28,0,0,0-1.28-1.28H19.16a1.28,1.28,0,0,0-1.28,1.28V82a1.28,1.28,0,0,0,1.28,1.28Zm0-10.22H34.49a1.28,1.28,0,0,0,1.28-1.28V69.18a1.28,1.28,0,0,0-1.28-1.28H19.16a1.28,1.28,0,0,0-1.28,1.28v2.56A1.28,1.28,0,0,0,19.16,73Zm23-5.11H39.6a1.28,1.28,0,0,0-1.28,1.28v2.56A1.28,1.28,0,0,0,39.6,73h2.55a1.28,1.28,0,0,0,1.28-1.28V69.18a1.28,1.28,0,0,0-1.28-1.28Zm0-20.44H39.6a1.28,1.28,0,0,0-1.28,1.28v2.55a1.28,1.28,0,0,0,1.28,1.28h2.55a1.28,1.28,0,0,0,1.28-1.28V48.74a1.28,1.28,0,0,0-1.28-1.28Zm0,10.22H34.49A1.28,1.28,0,0,0,33.21,59v2.56a1.28,1.28,0,0,0,1.28,1.28h7.66a1.28,1.28,0,0,0,1.28-1.28V59a1.28,1.28,0,0,0-1.28-1.28Zm-23,5.11h2.55A1.28,1.28,0,0,0,23,61.51V59a1.28,1.28,0,0,0-1.28-1.28H19.16A1.28,1.28,0,0,0,17.88,59v2.56a1.28,1.28,0,0,0,1.28,1.28Zm7.66-5.11A1.28,1.28,0,0,0,25.55,59v2.56a1.28,1.28,0,0,0,1.28,1.28h2.55a1.28,1.28,0,0,0,1.28-1.28V59a1.28,1.28,0,0,0-1.28-1.28Zm-7.66-5.11H34.49a1.28,1.28,0,0,0,1.28-1.28V48.74a1.28,1.28,0,0,0-1.28-1.28H19.16a1.28,1.28,0,0,0-1.28,1.28v2.55a1.28,1.28,0,0,0,1.28,1.28Zm23-15.33h-23a1.28,1.28,0,0,0-1.28,1.28v2.55a1.28,1.28,0,0,0,1.28,1.28h23a1.28,1.28,0,0,0,1.28-1.28V38.52a1.28,1.28,0,0,0-1.28-1.28Zm0,0"/>
    <path class="cls-10" d="M66.43,49.52a5.6,5.6,0,1,1,5.6,5.6,5.6,5.6,0,0,1-5.6-5.6Zm37.25,26a5.6,5.6,0,1,0,5.6,5.6,5.6,5.6,0,0,0-5.6-5.6Zm4.11-30.15a5.11,5.11,0,0,0-7.23,0L67.92,78a5.11,5.11,0,0,0,7.23,7.23l32.63-32.63a5.11,5.11,0,0,0,0-7.23Zm0,0"/>
    <path class="cls-11" d="M109.25,80.64a29.49,29.49,0,0,1-11.17.86c0-.11,0-.22,0-.34a5.6,5.6,0,0,1,11.18-.53Zm-1.47-35.22a5.11,5.11,0,0,0-7.23,0L80.38,65.59a5.1,5.1,0,0,0-.09,7.13l.09.09a5.09,5.09,0,0,0,7.23,0l20.17-20.17a5.11,5.11,0,0,0,0-7.23ZM73.23,44A29.37,29.37,0,0,0,72,52.31c0,.95,0,1.88.13,2.81a5.6,5.6,0,0,0,1-11.07Zm0,0"/>
</svg>